<?xml version="1.0" encoding="UTF-8" standalone="no"?>
<!DOCTYPE svg PUBLIC "-//W3C//DTD SVG 20010904//EN"
              "http://www.w3.org/TR/2001/REC-SVG-20010904/DTD/svg10.dtd">

<svg xmlns="http://www.w3.org/2000/svg"
     width="0.266667in" height="0.266667in"
     viewBox="0 0 24 24">
  <path id="surface1"
        d="M 11.04,1.68
           C 11.04,2.61 10.29,3.36 9.36,3.36
             8.43,3.36 7.68,2.61 7.68,1.68
             7.68,0.75 8.43,0.00 9.36,0.00
             10.29,0.00 11.04,0.75 11.04,1.68 Z
           M 7.20,4.15
           C 7.20,6.93 5.01,7.92 3.54,7.92
             2.11,7.92 0.00,6.97 0.00,4.92
             0.00,2.66 1.57,0.96 3.65,0.96
             4.87,0.96 7.20,1.63 7.20,4.15 Z
           M 15.03,2.41
           C 17.19,2.41 24.00,6.01 24.00,12.25
             24.00,18.71 19.42,23.52 15.33,23.52
             11.42,23.52 4.23,20.00 4.23,14.23
             4.23,7.72 9.07,2.41 15.03,2.41
             15.03,2.41 15.03,2.41 15.03,2.41 Z
           M 8.64,14.64
           C 8.64,16.36 10.04,17.76 11.76,17.76
             11.76,17.76 19.20,17.76 19.20,17.76
             19.20,17.76 19.20,9.12 19.20,9.12
             19.20,9.12 16.80,9.12 16.80,9.12
             16.80,9.12 16.80,14.64 16.80,14.64
             16.80,15.04 16.48,15.36 16.08,15.36
             16.08,15.36 11.76,15.36 11.76,15.36
             11.36,15.36 11.04,15.04 11.04,14.64
             11.04,14.64 11.04,9.12 11.04,9.12
             11.04,9.12 8.64,9.12 8.64,9.12
             8.64,9.12 8.64,14.64 8.64,14.64 Z" />
</svg>
