<?xml version="1.0" encoding="UTF-8" standalone="no"?>
<!DOCTYPE svg PUBLIC "-//W3C//DTD SVG 20010904//EN"
              "http://www.w3.org/TR/2001/REC-SVG-20010904/DTD/svg10.dtd">

<svg xmlns="http://www.w3.org/2000/svg"
     width="0.333333in" height="0.333333in"
     viewBox="0 0 24 24">
  <path id="Selection #1"
        d="M 15.38,0.46
           C 23.79,2.83 26.75,13.32 21.13,19.88
             19.97,21.23 18.67,22.16 17.06,22.92
             15.31,23.74 13.54,24.02 11.63,24.00
             2.28,23.89 -2.97,13.41 1.77,5.63
             3.78,2.34 6.80,0.69 10.50,0.08
             12.11,-0.12 13.81,0.01 15.38,0.46 Z
           M 7.13,6.46
           C 1.98,10.84 5.42,20.24 12.94,19.26
             19.30,18.43 21.25,10.82 17.22,6.78
             16.54,6.10 15.53,5.50 14.63,5.15
             13.48,4.71 12.27,4.63 11.06,4.74
             9.55,4.99 8.32,5.45 7.13,6.46 Z" />
</svg>
