<?xml version="1.0" encoding="UTF-8" standalone="no"?>
<!DOCTYPE svg PUBLIC "-//W3C//DTD SVG 20010904//EN"
              "http://www.w3.org/TR/2001/REC-SVG-20010904/DTD/svg10.dtd">

<svg xmlns="http://www.w3.org/2000/svg"
     width="0.333333in" height="0.333333in"
     viewBox="0 0 24 24">
  <path id="Selection"
        d="M 10.76,14.30
           C 10.72,14.53 10.53,14.49 10.39,14.38
             10.21,14.23 10.10,13.91 9.92,13.86
             9.66,13.79 9.63,14.57 9.38,14.19
             9.26,14.02 9.36,13.65 9.28,13.44
             9.13,13.05 8.72,13.07 8.77,12.56
             8.79,12.36 8.89,12.14 8.82,11.95
             8.68,11.55 8.19,11.56 8.25,11.03
             8.26,10.76 8.41,10.56 8.25,10.31
             8.03,9.91 6.80,9.24 6.21,10.21
             5.83,10.84 7.18,11.22 6.75,11.84
             6.61,12.03 6.15,12.16 6.21,12.46
             6.30,12.84 6.75,12.70 6.98,12.83
             7.28,12.99 7.24,13.35 7.24,13.64
             7.24,14.38 6.93,14.75 7.04,15.54
             7.18,16.45 7.68,16.98 7.54,18.00
             7.46,18.61 7.23,19.23 6.73,19.62
             6.57,19.75 6.14,19.96 5.98,19.72
             5.90,19.60 5.94,19.41 5.98,19.28
             6.05,19.01 6.14,18.75 6.12,18.46
             6.07,17.76 5.53,17.23 5.01,16.83
             4.72,16.60 4.22,16.24 4.16,15.85
             4.07,15.22 4.83,15.14 5.21,14.87
             5.41,14.74 5.59,14.50 5.38,14.28
             5.23,14.11 5.06,14.21 4.91,14.32
             4.68,14.50 4.32,14.90 4.05,14.95
             3.85,14.99 3.70,14.89 3.60,14.72
             3.47,14.49 3.51,14.20 3.45,13.95
             3.38,13.62 3.17,13.32 3.20,12.97
             3.20,12.97 3.34,12.31 3.34,12.31
             3.37,11.76 2.87,10.98 3.23,10.52
             3.62,10.02 4.27,10.65 4.71,10.47
             4.87,10.40 5.00,10.23 5.03,10.05
             5.09,9.81 4.94,9.65 4.97,9.28
             5.00,8.78 5.41,8.32 5.35,7.95
             5.27,7.43 4.66,7.46 4.58,7.08
             4.52,6.80 4.79,6.58 5.01,6.49
             5.51,6.28 6.13,6.68 6.58,6.89
             6.74,6.95 6.92,7.03 7.07,6.89
             7.25,6.74 7.17,6.48 7.07,6.31
             6.84,5.92 6.30,5.57 6.24,5.18
             6.19,4.81 6.45,4.64 6.78,4.67
             7.32,4.72 7.68,5.43 8.01,5.79
             8.19,6.00 8.47,6.23 8.76,6.11
             8.86,6.07 8.96,5.99 9.02,5.89
             9.33,5.43 8.69,4.84 8.42,4.51
             8.35,4.42 8.26,4.31 8.20,4.21
             7.94,3.73 8.32,3.46 8.76,3.44
             9.51,3.40 9.66,4.01 10.05,4.51
             10.18,4.67 10.45,4.99 10.67,4.80
             11.15,4.39 10.33,3.32 10.67,2.90
             10.89,2.63 11.27,2.71 11.48,2.93
             11.80,3.26 11.82,3.79 11.98,4.21
             12.03,4.35 12.17,4.58 12.35,4.56
             12.60,4.54 12.65,4.14 12.66,3.95
             12.67,3.64 12.49,2.94 12.77,2.77
             12.87,2.71 13.05,2.72 13.16,2.72
             13.45,2.73 13.79,2.81 14.08,2.86
             14.76,2.98 15.52,3.02 15.70,3.85
             15.73,3.99 15.75,4.11 15.74,4.26
             15.74,4.26 15.68,4.72 15.68,4.72
             15.67,4.81 15.66,4.89 15.68,4.97
             15.70,5.08 15.77,5.19 15.85,5.25
             16.20,5.50 16.67,4.85 16.85,4.62
             16.93,4.53 17.00,4.44 17.12,4.40
             17.36,4.33 17.55,4.60 17.87,4.66
             18.08,4.69 18.39,4.61 18.53,4.79
             18.63,4.92 18.62,5.13 18.67,5.28
             18.78,5.60 19.22,5.88 19.03,6.31
             18.87,6.67 18.14,6.95 18.38,7.38
             18.64,7.88 19.08,7.52 19.44,7.45
             20.04,7.35 20.36,7.70 20.49,8.26
             20.53,8.39 20.57,8.63 20.55,8.77
             20.51,9.01 20.36,9.03 20.15,9.02
             19.87,9.01 19.54,8.89 19.31,9.14
             19.24,9.21 19.21,9.29 19.21,9.38
             19.23,9.66 19.53,9.82 19.75,9.92
             20.23,10.14 20.75,10.26 20.70,10.92
             20.68,11.27 20.46,11.59 20.52,11.95
             20.58,12.34 20.92,12.40 20.91,12.87
             20.90,13.19 20.73,13.45 20.65,13.74
             20.65,13.74 20.30,15.18 20.30,15.18
             20.13,15.63 19.73,16.32 19.29,16.54
             18.99,16.69 18.73,16.52 18.50,16.78
             18.32,16.99 18.42,17.17 18.42,17.38
             18.42,17.58 18.34,17.75 18.22,17.90
             17.93,18.23 17.06,18.77 16.66,19.03
             16.41,19.19 16.12,19.44 15.85,19.53
             15.47,19.66 15.29,19.44 14.99,19.57
             14.73,19.69 14.66,19.92 14.38,20.08
             14.02,20.30 13.48,20.37 13.06,20.40
             12.84,20.42 12.15,20.33 12.32,19.96
             12.38,19.81 12.62,19.70 12.76,19.63
             13.03,19.49 13.76,19.05 13.97,19.00
             14.24,18.94 14.46,19.03 14.68,18.89
             14.91,18.74 15.05,18.45 15.39,18.18
             15.98,17.71 16.72,17.51 17.10,16.77
             17.38,16.23 17.04,15.86 17.30,15.49
             17.52,15.18 17.87,15.26 18.27,14.82
             18.90,14.12 19.16,12.61 18.63,11.79
             18.54,11.66 18.45,11.56 18.33,11.46
             17.81,11.05 17.28,11.31 16.98,11.85
             16.83,12.12 16.79,12.47 16.74,12.77
             16.70,12.98 16.62,13.48 16.30,13.39
             16.11,13.34 15.95,13.08 15.85,12.92
             15.58,12.48 15.51,12.30 15.14,11.90
             15.10,11.99 15.07,12.05 15.06,12.15
             15.03,12.51 15.34,13.57 15.46,13.95
             15.52,14.13 15.71,14.63 15.59,14.79
             15.50,14.91 15.13,14.87 14.99,14.87
             14.81,14.87 14.70,14.88 14.53,14.93
             14.34,15.00 13.57,15.41 13.44,15.56
             13.44,15.56 12.97,16.46 12.97,16.46
             12.89,16.66 12.91,16.86 12.91,17.08
             12.91,17.20 12.91,17.42 12.79,17.48
             12.67,17.54 12.58,17.42 12.53,17.33
             12.44,17.15 12.42,16.87 12.20,16.78
             11.91,16.65 11.69,17.18 11.47,17.07
             11.22,16.95 11.53,16.38 11.47,16.16
             11.43,15.93 11.20,15.97 11.10,15.92
             11.01,15.87 11.00,15.79 11.03,15.69
             11.11,15.47 11.41,15.32 11.59,15.21
             11.80,15.08 11.98,14.91 12.20,14.83
             12.43,14.74 12.67,14.76 12.81,14.51
             12.81,14.51 12.95,13.64 12.95,13.64
             13.12,13.00 13.46,12.14 13.47,11.49
             13.47,11.26 13.48,11.09 13.42,10.87
             13.26,10.34 12.96,10.13 13.23,9.54
             13.38,9.21 13.70,8.75 14.03,8.59
             14.41,8.40 14.89,8.59 15.13,8.15
             15.19,8.06 15.22,7.96 15.20,7.85
             15.12,7.01 13.86,6.65 13.16,6.69
             12.57,6.73 11.70,7.00 11.70,7.74
             11.70,8.04 11.91,8.29 11.94,8.62
             11.96,8.84 11.88,9.04 11.78,9.23
             11.41,9.93 10.94,10.00 10.23,10.00
             10.11,10.00 9.94,9.99 9.82,10.04
             9.49,10.17 9.39,10.49 9.63,10.76
             10.04,11.23 10.94,11.32 11.21,11.90
             11.37,12.24 11.18,12.48 11.21,12.77
             11.24,13.04 11.68,13.67 11.14,13.68
             11.07,13.69 11.00,13.68 10.94,13.68
             10.94,13.68 10.68,13.59 10.68,13.59
             10.68,13.59 10.76,14.30 10.76,14.30 Z
           M 8.50,9.34
           C 8.93,9.22 8.71,8.33 8.26,8.34
             7.78,8.65 8.07,9.45 8.50,9.34 Z
           M 16.80,10.31
           C 16.97,10.57 17.28,10.61 17.57,10.62
             17.75,10.62 18.02,10.65 18.14,10.50
             18.26,10.34 18.21,10.12 18.17,9.95
             18.08,9.57 17.78,8.73 17.37,8.66
             16.98,8.83 16.54,9.91 16.80,10.31 Z
           M 14.02,12.31
           C 14.02,12.31 13.89,13.69 13.89,13.69
             13.90,13.93 14.07,14.23 14.33,14.23
             14.64,14.23 14.69,13.88 14.68,13.64
             14.67,13.31 14.54,13.08 14.50,12.77
             14.43,12.34 14.47,11.89 14.28,11.49
             14.05,11.73 14.05,11.99 14.02,12.31 Z
           M 10.17,12.75
           C 10.35,12.71 10.34,12.50 10.31,12.36
             10.25,12.08 10.02,11.77 9.73,11.74
             9.36,11.96 9.72,12.86 10.17,12.75 Z
           M 4.96,13.42
           C 5.62,13.28 5.58,12.16 4.71,12.22
             3.88,12.46 4.15,13.59 4.96,13.42 Z" />
</svg>
